<?xml version="1.0" encoding="utf-8" standalone="no"?>
<!DOCTYPE svg PUBLIC "-//W3C//DTD SVG 1.1//EN"
  "http://www.w3.org/Graphics/SVG/1.1/DTD/svg11.dtd">
<svg xmlns:xlink="http://www.w3.org/1999/xlink" width="1152pt" height="504pt" viewBox="0 0 1152 504" xmlns="http://www.w3.org/2000/svg" version="1.1">
 <metadata>
  <rdf:RDF xmlns:dc="http://purl.org/dc/elements/1.1/" xmlns:cc="http://creativecommons.org/ns#" xmlns:rdf="http://www.w3.org/1999/02/22-rdf-syntax-ns#">
   <cc:Work>
    <dc:type rdf:resource="http://purl.org/dc/dcmitype/StillImage"/>
    <dc:date>2026-02-02T23:42:48.522699</dc:date>
    <dc:format>image/svg+xml</dc:format>
    <dc:creator>
     <cc:Agent>
      <dc:title>Matplotlib v3.9.4, https://matplotlib.org/</dc:title>
     </cc:Agent>
    </dc:creator>
   </cc:Work>
  </rdf:RDF>
 </metadata>
 <defs>
  <style type="text/css">*{stroke-linejoin: round; stroke-linecap: butt}</style>
 </defs>
 <g id="figure_1">
  <g id="patch_1">
   <path d="M 0 504 
L 1152 504 
L 1152 0 
L 0 0 
z
" style="fill: #ffffff"/>
  </g>
  <g id="axes_1">
   <g id="patch_2">
    <path d="M 144 448.56 
L 1036.8 448.56 
L 1036.8 60.48 
L 144 60.48 
z
" style="fill: #ffffff"/>
   </g>
   <g id="PathCollection_1">
    <defs>
     <path id="m9bf28fc8c4" d="M 0 3 
C 0.795609 3 1.55874 2.683901 2.12132 2.12132 
C 2.683901 1.55874 3 0.795609 3 0 
C 3 -0.795609 2.683901 -1.55874 2.12132 -2.12132 
C 1.55874 -2.683901 0.795609 -3 0 -3 
C -0.795609 -3 -1.55874 -2.683901 -2.12132 -2.12132 
C -2.683901 -1.55874 -3 -0.795609 -3 0 
C -3 0.795609 -2.683901 1.55874 -2.12132 2.12132 
C -1.55874 2.683901 -0.795609 3 0 3 
z
" style="stroke: #1f77b4"/>
    </defs>
    <g clip-path="url(#pa0366cb3b3)">
     <use xlink:href="#m9bf28fc8c4" x="605.868629" y="403.226964" style="fill: #1f77b4; stroke: #1f77b4"/>
     <use xlink:href="#m9bf28fc8c4" x="437.292908" y="430.92" style="fill: #1f77b4; stroke: #1f77b4"/>
     <use xlink:href="#m9bf28fc8c4" x="317.068327" y="320.890163" style="fill: #1f77b4; stroke: #1f77b4"/>
     <use xlink:href="#m9bf28fc8c4" x="341.487624" y="430.92" style="fill: #1f77b4; stroke: #1f77b4"/>
     <use xlink:href="#m9bf28fc8c4" x="618.757995" y="206.354416" style="fill: #1f77b4; stroke: #1f77b4"/>
     <use xlink:href="#m9bf28fc8c4" x="591.255871" y="345.319706" style="fill: #1f77b4; stroke: #1f77b4"/>
     <use xlink:href="#m9bf28fc8c4" x="551.262464" y="370.924848" style="fill: #1f77b4; stroke: #1f77b4"/>
     <use xlink:href="#m9bf28fc8c4" x="405.810958" y="381.977349" style="fill: #1f77b4; stroke: #1f77b4"/>
     <use xlink:href="#m9bf28fc8c4" x="454.162099" y="276.037639" style="fill: #1f77b4; stroke: #1f77b4"/>
     <use xlink:href="#m9bf28fc8c4" x="724.121388" y="345.319706" style="fill: #1f77b4; stroke: #1f77b4"/>
     <use xlink:href="#m9bf28fc8c4" x="628.713322" y="206.354416" style="fill: #1f77b4; stroke: #1f77b4"/>
     <use xlink:href="#m9bf28fc8c4" x="755.603338" y="312.015745" style="fill: #1f77b4; stroke: #1f77b4"/>
     <use xlink:href="#m9bf28fc8c4" x="648.929353" y="320.890163" style="fill: #1f77b4; stroke: #1f77b4"/>
     <use xlink:href="#m9bf28fc8c4" x="317.068327" y="364.063096" style="fill: #1f77b4; stroke: #1f77b4"/>
     <use xlink:href="#m9bf28fc8c4" x="341.487624" y="297.206192" style="fill: #1f77b4; stroke: #1f77b4"/>
     <use xlink:href="#m9bf28fc8c4" x="498.533415" y="253.040451" style="fill: #1f77b4; stroke: #1f77b4"/>
     <use xlink:href="#m9bf28fc8c4" x="317.068327" y="238.841228" style="fill: #1f77b4; stroke: #1f77b4"/>
     <use xlink:href="#m9bf28fc8c4" x="770.029403" y="149.093953" style="fill: #1f77b4; stroke: #1f77b4"/>
     <use xlink:href="#m9bf28fc8c4" x="724.782618" y="258.208923" style="fill: #1f77b4; stroke: #1f77b4"/>
     <use xlink:href="#m9bf28fc8c4" x="481.664223" y="320.890163" style="fill: #1f77b4; stroke: #1f77b4"/>
     <use xlink:href="#m9bf28fc8c4" x="533.855517" y="360.761023" style="fill: #1f77b4; stroke: #1f77b4"/>
     <use xlink:href="#m9bf28fc8c4" x="657.790051" y="334.011603" style="fill: #1f77b4; stroke: #1f77b4"/>
     <use xlink:href="#m9bf28fc8c4" x="738.402028" y="154.780787" style="fill: #1f77b4; stroke: #1f77b4"/>
     <use xlink:href="#m9bf28fc8c4" x="605.868629" y="162.15791" style="fill: #1f77b4; stroke: #1f77b4"/>
     <use xlink:href="#m9bf28fc8c4" x="617.007028" y="320.890163" style="fill: #1f77b4; stroke: #1f77b4"/>
     <use xlink:href="#m9bf28fc8c4" x="285.586377" y="328.113102" style="fill: #1f77b4; stroke: #1f77b4"/>
     <use xlink:href="#m9bf28fc8c4" x="820.752586" y="309.150365" style="fill: #1f77b4; stroke: #1f77b4"/>
     <use xlink:href="#m9bf28fc8c4" x="569.047419" y="348.280322" style="fill: #1f77b4; stroke: #1f77b4"/>
     <use xlink:href="#m9bf28fc8c4" x="678.750677" y="137.741458" style="fill: #1f77b4; stroke: #1f77b4"/>
     <use xlink:href="#m9bf28fc8c4" x="820.20267" y="126.736145" style="fill: #1f77b4; stroke: #1f77b4"/>
     <use xlink:href="#m9bf28fc8c4" x="729.302623" y="364.063096" style="fill: #1f77b4; stroke: #1f77b4"/>
     <use xlink:href="#m9bf28fc8c4" x="679.750073" y="235.752423" style="fill: #1f77b4; stroke: #1f77b4"/>
     <use xlink:href="#m9bf28fc8c4" x="799.642535" y="187.054093" style="fill: #1f77b4; stroke: #1f77b4"/>
     <use xlink:href="#m9bf28fc8c4" x="361.439642" y="430.92" style="fill: #1f77b4; stroke: #1f77b4"/>
     <use xlink:href="#m9bf28fc8c4" x="533.855517" y="297.206192" style="fill: #1f77b4; stroke: #1f77b4"/>
     <use xlink:href="#m9bf28fc8c4" x="757.085525" y="276.037639" style="fill: #1f77b4; stroke: #1f77b4"/>
     <use xlink:href="#m9bf28fc8c4" x="620.481387" y="320.890163" style="fill: #1f77b4; stroke: #1f77b4"/>
     <use xlink:href="#m9bf28fc8c4" x="709.981344" y="170.246303" style="fill: #1f77b4; stroke: #1f77b4"/>
     <use xlink:href="#m9bf28fc8c4" x="630.287926" y="313.465139" style="fill: #1f77b4; stroke: #1f77b4"/>
     <use xlink:href="#m9bf28fc8c4" x="770.897925" y="206.354416" style="fill: #1f77b4; stroke: #1f77b4"/>
     <use xlink:href="#m9bf28fc8c4" x="741.274453" y="182.200986" style="fill: #1f77b4; stroke: #1f77b4"/>
     <use xlink:href="#m9bf28fc8c4" x="702.161366" y="268.505483" style="fill: #1f77b4; stroke: #1f77b4"/>
     <use xlink:href="#m9bf28fc8c4" x="642.130078" y="217.296454" style="fill: #1f77b4; stroke: #1f77b4"/>
     <use xlink:href="#m9bf28fc8c4" x="513.146173" y="94.191505" style="fill: #1f77b4; stroke: #1f77b4"/>
     <use xlink:href="#m9bf28fc8c4" x="656.567321" y="232.362574" style="fill: #1f77b4; stroke: #1f77b4"/>
     <use xlink:href="#m9bf28fc8c4" x="918.640649" y="131.58656" style="fill: #1f77b4; stroke: #1f77b4"/>
     <use xlink:href="#m9bf28fc8c4" x="771.759607" y="233.713291" style="fill: #1f77b4; stroke: #1f77b4"/>
     <use xlink:href="#m9bf28fc8c4" x="778.82226" y="181.63493" style="fill: #1f77b4; stroke: #1f77b4"/>
     <use xlink:href="#m9bf28fc8c4" x="454.162099" y="193.449447" style="fill: #1f77b4; stroke: #1f77b4"/>
     <use xlink:href="#m9bf28fc8c4" x="526.035539" y="134.036021" style="fill: #1f77b4; stroke: #1f77b4"/>
     <use xlink:href="#m9bf28fc8c4" x="712.9593" y="170.519359" style="fill: #1f77b4; stroke: #1f77b4"/>
     <use xlink:href="#m9bf28fc8c4" x="773.039542" y="198.78374" style="fill: #1f77b4; stroke: #1f77b4"/>
     <use xlink:href="#m9bf28fc8c4" x="788.075639" y="164.832207" style="fill: #1f77b4; stroke: #1f77b4"/>
     <use xlink:href="#m9bf28fc8c4" x="850.576427" y="126.736145" style="fill: #1f77b4; stroke: #1f77b4"/>
     <use xlink:href="#m9bf28fc8c4" x="731.184041" y="177.142456" style="fill: #1f77b4; stroke: #1f77b4"/>
     <use xlink:href="#m9bf28fc8c4" x="699.702091" y="200.583113" style="fill: #1f77b4; stroke: #1f77b4"/>
     <use xlink:href="#m9bf28fc8c4" x="773.039542" y="103.377833" style="fill: #1f77b4; stroke: #1f77b4"/>
     <use xlink:href="#m9bf28fc8c4" x="889.817125" y="79.186474" style="fill: #1f77b4; stroke: #1f77b4"/>
     <use xlink:href="#m9bf28fc8c4" x="574.38668" y="126.736145" style="fill: #1f77b4; stroke: #1f77b4"/>
     <use xlink:href="#m9bf28fc8c4" x="812.790303" y="155.041521" style="fill: #1f77b4; stroke: #1f77b4"/>
     <use xlink:href="#m9bf28fc8c4" x="796.607215" y="119.577143" style="fill: #1f77b4; stroke: #1f77b4"/>
     <use xlink:href="#m9bf28fc8c4" x="839.832623" y="235.752423" style="fill: #1f77b4; stroke: #1f77b4"/>
     <use xlink:href="#m9bf28fc8c4" x="798.640087" y="120.998061" style="fill: #1f77b4; stroke: #1f77b4"/>
     <use xlink:href="#m9bf28fc8c4" x="758.547905" y="98.870269" style="fill: #1f77b4; stroke: #1f77b4"/>
     <use xlink:href="#m9bf28fc8c4" x="804.839149" y="206.354416" style="fill: #1f77b4; stroke: #1f77b4"/>
     <use xlink:href="#m9bf28fc8c4" x="835.365345" y="107.937513" style="fill: #1f77b4; stroke: #1f77b4"/>
     <use xlink:href="#m9bf28fc8c4" x="707.69346" y="176.863765" style="fill: #1f77b4; stroke: #1f77b4"/>
     <use xlink:href="#m9bf28fc8c4" x="772.614558" y="119.340842" style="fill: #1f77b4; stroke: #1f77b4"/>
     <use xlink:href="#m9bf28fc8c4" x="738.982576" y="222.118827" style="fill: #1f77b4; stroke: #1f77b4"/>
     <use xlink:href="#m9bf28fc8c4" x="830.707913" y="198.78374" style="fill: #1f77b4; stroke: #1f77b4"/>
     <use xlink:href="#m9bf28fc8c4" x="615.227588" y="134.527895" style="fill: #1f77b4; stroke: #1f77b4"/>
     <use xlink:href="#m9bf28fc8c4" x="642.130078" y="168.884423" style="fill: #1f77b4; stroke: #1f77b4"/>
     <use xlink:href="#m9bf28fc8c4" x="806.725974" y="85.643269" style="fill: #1f77b4; stroke: #1f77b4"/>
     <use xlink:href="#m9bf28fc8c4" x="854.070363" y="117.455719" style="fill: #1f77b4; stroke: #1f77b4"/>
     <use xlink:href="#m9bf28fc8c4" x="900.512187" y="104.740183" style="fill: #1f77b4; stroke: #1f77b4"/>
     <use xlink:href="#m9bf28fc8c4" x="773.039542" y="81.327616" style="fill: #1f77b4; stroke: #1f77b4"/>
     <use xlink:href="#m9bf28fc8c4" x="810.10286" y="102.246126" style="fill: #1f77b4; stroke: #1f77b4"/>
     <use xlink:href="#m9bf28fc8c4" x="810.10286" y="78.12" style="fill: #1f77b4; stroke: #1f77b4"/>
     <use xlink:href="#m9bf28fc8c4" x="184.581818" y="117.220735" style="fill: #1f77b4; stroke: #1f77b4"/>
     <use xlink:href="#m9bf28fc8c4" x="832.693149" y="78.12" style="fill: #1f77b4; stroke: #1f77b4"/>
     <use xlink:href="#m9bf28fc8c4" x="819.649976" y="78.12" style="fill: #1f77b4; stroke: #1f77b4"/>
     <use xlink:href="#m9bf28fc8c4" x="853.665055" y="85.643269" style="fill: #1f77b4; stroke: #1f77b4"/>
     <use xlink:href="#m9bf28fc8c4" x="807.966023" y="192.276697" style="fill: #1f77b4; stroke: #1f77b4"/>
     <use xlink:href="#m9bf28fc8c4" x="855.077115" y="78.12" style="fill: #1f77b4; stroke: #1f77b4"/>
     <use xlink:href="#m9bf28fc8c4" x="820.477974" y="80.255672" style="fill: #1f77b4; stroke: #1f77b4"/>
     <use xlink:href="#m9bf28fc8c4" x="877.146406" y="88.472844" style="fill: #1f77b4; stroke: #1f77b4"/>
     <use xlink:href="#m9bf28fc8c4" x="851.615685" y="78.12" style="fill: #1f77b4; stroke: #1f77b4"/>
     <use xlink:href="#m9bf28fc8c4" x="912.53063" y="78.12" style="fill: #1f77b4; stroke: #1f77b4"/>
     <use xlink:href="#m9bf28fc8c4" x="851.408622" y="78.12" style="fill: #1f77b4; stroke: #1f77b4"/>
     <use xlink:href="#m9bf28fc8c4" x="876.982461" y="82.617601" style="fill: #1f77b4; stroke: #1f77b4"/>
     <use xlink:href="#m9bf28fc8c4" x="859.784642" y="78.12" style="fill: #1f77b4; stroke: #1f77b4"/>
     <use xlink:href="#m9bf28fc8c4" x="773.039542" y="78.12" style="fill: #1f77b4; stroke: #1f77b4"/>
     <use xlink:href="#m9bf28fc8c4" x="836.321099" y="78.12" style="fill: #1f77b4; stroke: #1f77b4"/>
     <use xlink:href="#m9bf28fc8c4" x="853.054264" y="81.972108" style="fill: #1f77b4; stroke: #1f77b4"/>
     <use xlink:href="#m9bf28fc8c4" x="902.088682" y="78.12" style="fill: #1f77b4; stroke: #1f77b4"/>
     <use xlink:href="#m9bf28fc8c4" x="904.283875" y="78.12" style="fill: #1f77b4; stroke: #1f77b4"/>
     <use xlink:href="#m9bf28fc8c4" x="821.299753" y="78.12" style="fill: #1f77b4; stroke: #1f77b4"/>
     <use xlink:href="#m9bf28fc8c4" x="557.517488" y="82.402325" style="fill: #1f77b4; stroke: #1f77b4"/>
     <use xlink:href="#m9bf28fc8c4" x="820.477974" y="78.12" style="fill: #1f77b4; stroke: #1f77b4"/>
     <use xlink:href="#m9bf28fc8c4" x="873.312104" y="80.255672" style="fill: #1f77b4; stroke: #1f77b4"/>
     <use xlink:href="#m9bf28fc8c4" x="996.218182" y="79.186474" style="fill: #1f77b4; stroke: #1f77b4"/>
    </g>
   </g>
   <g id="matplotlib.axis_1">
    <g id="xtick_1">
     <g id="line2d_1">
      <defs>
       <path id="mcffd0729ef" d="M 0 0 
L 0 3.5 
" style="stroke: #000000; stroke-width: 0.8"/>
      </defs>
      <g>
       <use xlink:href="#mcffd0729ef" x="165.361797" y="448.56" style="stroke: #000000; stroke-width: 0.8"/>
      </g>
     </g>
     <g id="text_1">
      <!-- 0 -->
      <g transform="translate(162.180547 463.158437) scale(0.1 -0.1)">
       <defs>
        <path id="DejaVuSans-30" d="M 2034 4250 
Q 1547 4250 1301 3770 
Q 1056 3291 1056 2328 
Q 1056 1369 1301 889 
Q 1547 409 2034 409 
Q 2525 409 2770 889 
Q 3016 1369 3016 2328 
Q 3016 3291 2770 3770 
Q 2525 4250 2034 4250 
z
M 2034 4750 
Q 2819 4750 3233 4129 
Q 3647 3509 3647 2328 
Q 3647 1150 3233 529 
Q 2819 -91 2034 -91 
Q 1250 -91 836 529 
Q 422 1150 422 2328 
Q 422 3509 836 4129 
Q 1250 4750 2034 4750 
z
" transform="scale(0.015625)"/>
       </defs>
       <use xlink:href="#DejaVuSans-30"/>
      </g>
     </g>
    </g>
    <g id="xtick_2">
     <g id="line2d_2">
      <g>
       <use xlink:href="#mcffd0729ef" x="274.794926" y="448.56" style="stroke: #000000; stroke-width: 0.8"/>
      </g>
     </g>
     <g id="text_2">
      <!-- 1 -->
      <g transform="translate(271.613676 463.158437) scale(0.1 -0.1)">
       <defs>
        <path id="DejaVuSans-31" d="M 794 531 
L 1825 531 
L 1825 4091 
L 703 3866 
L 703 4441 
L 1819 4666 
L 2450 4666 
L 2450 531 
L 3481 531 
L 3481 0 
L 794 0 
L 794 531 
z
" transform="scale(0.015625)"/>
       </defs>
       <use xlink:href="#DejaVuSans-31"/>
      </g>
     </g>
    </g>
    <g id="xtick_3">
     <g id="line2d_3">
      <g>
       <use xlink:href="#mcffd0729ef" x="384.228055" y="448.56" style="stroke: #000000; stroke-width: 0.8"/>
      </g>
     </g>
     <g id="text_3">
      <!-- 2 -->
      <g transform="translate(381.046805 463.158437) scale(0.1 -0.1)">
       <defs>
        <path id="DejaVuSans-32" d="M 1228 531 
L 3431 531 
L 3431 0 
L 469 0 
L 469 531 
Q 828 903 1448 1529 
Q 2069 2156 2228 2338 
Q 2531 2678 2651 2914 
Q 2772 3150 2772 3378 
Q 2772 3750 2511 3984 
Q 2250 4219 1831 4219 
Q 1534 4219 1204 4116 
Q 875 4013 500 3803 
L 500 4441 
Q 881 4594 1212 4672 
Q 1544 4750 1819 4750 
Q 2544 4750 2975 4387 
Q 3406 4025 3406 3419 
Q 3406 3131 3298 2873 
Q 3191 2616 2906 2266 
Q 2828 2175 2409 1742 
Q 1991 1309 1228 531 
z
" transform="scale(0.015625)"/>
       </defs>
       <use xlink:href="#DejaVuSans-32"/>
      </g>
     </g>
    </g>
    <g id="xtick_4">
     <g id="line2d_4">
      <g>
       <use xlink:href="#mcffd0729ef" x="493.661185" y="448.56" style="stroke: #000000; stroke-width: 0.8"/>
      </g>
     </g>
     <g id="text_4">
      <!-- 3 -->
      <g transform="translate(490.479935 463.158437) scale(0.1 -0.1)">
       <defs>
        <path id="DejaVuSans-33" d="M 2597 2516 
Q 3050 2419 3304 2112 
Q 3559 1806 3559 1356 
Q 3559 666 3084 287 
Q 2609 -91 1734 -91 
Q 1441 -91 1130 -33 
Q 819 25 488 141 
L 488 750 
Q 750 597 1062 519 
Q 1375 441 1716 441 
Q 2309 441 2620 675 
Q 2931 909 2931 1356 
Q 2931 1769 2642 2001 
Q 2353 2234 1838 2234 
L 1294 2234 
L 1294 2753 
L 1863 2753 
Q 2328 2753 2575 2939 
Q 2822 3125 2822 3475 
Q 2822 3834 2567 4026 
Q 2313 4219 1838 4219 
Q 1578 4219 1281 4162 
Q 984 4106 628 3988 
L 628 4550 
Q 988 4650 1302 4700 
Q 1616 4750 1894 4750 
Q 2613 4750 3031 4423 
Q 3450 4097 3450 3541 
Q 3450 3153 3228 2886 
Q 3006 2619 2597 2516 
z
" transform="scale(0.015625)"/>
       </defs>
       <use xlink:href="#DejaVuSans-33"/>
      </g>
     </g>
    </g>
    <g id="xtick_5">
     <g id="line2d_5">
      <g>
       <use xlink:href="#mcffd0729ef" x="603.094314" y="448.56" style="stroke: #000000; stroke-width: 0.8"/>
      </g>
     </g>
     <g id="text_5">
      <!-- 4 -->
      <g transform="translate(599.913064 463.158437) scale(0.1 -0.1)">
       <defs>
        <path id="DejaVuSans-34" d="M 2419 4116 
L 825 1625 
L 2419 1625 
L 2419 4116 
z
M 2253 4666 
L 3047 4666 
L 3047 1625 
L 3713 1625 
L 3713 1100 
L 3047 1100 
L 3047 0 
L 2419 0 
L 2419 1100 
L 313 1100 
L 313 1709 
L 2253 4666 
z
" transform="scale(0.015625)"/>
       </defs>
       <use xlink:href="#DejaVuSans-34"/>
      </g>
     </g>
    </g>
    <g id="xtick_6">
     <g id="line2d_6">
      <g>
       <use xlink:href="#mcffd0729ef" x="712.527444" y="448.56" style="stroke: #000000; stroke-width: 0.8"/>
      </g>
     </g>
     <g id="text_6">
      <!-- 5 -->
      <g transform="translate(709.346194 463.158437) scale(0.1 -0.1)">
       <defs>
        <path id="DejaVuSans-35" d="M 691 4666 
L 3169 4666 
L 3169 4134 
L 1269 4134 
L 1269 2991 
Q 1406 3038 1543 3061 
Q 1681 3084 1819 3084 
Q 2600 3084 3056 2656 
Q 3513 2228 3513 1497 
Q 3513 744 3044 326 
Q 2575 -91 1722 -91 
Q 1428 -91 1123 -41 
Q 819 9 494 109 
L 494 744 
Q 775 591 1075 516 
Q 1375 441 1709 441 
Q 2250 441 2565 725 
Q 2881 1009 2881 1497 
Q 2881 1984 2565 2268 
Q 2250 2553 1709 2553 
Q 1456 2553 1204 2497 
Q 953 2441 691 2322 
L 691 4666 
z
" transform="scale(0.015625)"/>
       </defs>
       <use xlink:href="#DejaVuSans-35"/>
      </g>
     </g>
    </g>
    <g id="xtick_7">
     <g id="line2d_7">
      <g>
       <use xlink:href="#mcffd0729ef" x="821.960573" y="448.56" style="stroke: #000000; stroke-width: 0.8"/>
      </g>
     </g>
     <g id="text_7">
      <!-- 6 -->
      <g transform="translate(818.779323 463.158437) scale(0.1 -0.1)">
       <defs>
        <path id="DejaVuSans-36" d="M 2113 2584 
Q 1688 2584 1439 2293 
Q 1191 2003 1191 1497 
Q 1191 994 1439 701 
Q 1688 409 2113 409 
Q 2538 409 2786 701 
Q 3034 994 3034 1497 
Q 3034 2003 2786 2293 
Q 2538 2584 2113 2584 
z
M 3366 4563 
L 3366 3988 
Q 3128 4100 2886 4159 
Q 2644 4219 2406 4219 
Q 1781 4219 1451 3797 
Q 1122 3375 1075 2522 
Q 1259 2794 1537 2939 
Q 1816 3084 2150 3084 
Q 2853 3084 3261 2657 
Q 3669 2231 3669 1497 
Q 3669 778 3244 343 
Q 2819 -91 2113 -91 
Q 1303 -91 875 529 
Q 447 1150 447 2328 
Q 447 3434 972 4092 
Q 1497 4750 2381 4750 
Q 2619 4750 2861 4703 
Q 3103 4656 3366 4563 
z
" transform="scale(0.015625)"/>
       </defs>
       <use xlink:href="#DejaVuSans-36"/>
      </g>
     </g>
    </g>
    <g id="xtick_8">
     <g id="line2d_8">
      <g>
       <use xlink:href="#mcffd0729ef" x="931.393703" y="448.56" style="stroke: #000000; stroke-width: 0.8"/>
      </g>
     </g>
     <g id="text_8">
      <!-- 7 -->
      <g transform="translate(928.212453 463.158437) scale(0.1 -0.1)">
       <defs>
        <path id="DejaVuSans-37" d="M 525 4666 
L 3525 4666 
L 3525 4397 
L 1831 0 
L 1172 0 
L 2766 4134 
L 525 4134 
L 525 4666 
z
" transform="scale(0.015625)"/>
       </defs>
       <use xlink:href="#DejaVuSans-37"/>
      </g>
     </g>
    </g>
   </g>
   <g id="matplotlib.axis_2">
    <g id="ytick_1">
     <g id="line2d_9">
      <defs>
       <path id="m5528811de8" d="M 0 0 
L -3.5 0 
" style="stroke: #000000; stroke-width: 0.8"/>
      </defs>
      <g>
       <use xlink:href="#m5528811de8" x="144" y="413.208866" style="stroke: #000000; stroke-width: 0.8"/>
      </g>
     </g>
     <g id="text_9">
      <!-- 2 -->
      <g transform="translate(130.6375 417.008085) scale(0.1 -0.1)">
       <use xlink:href="#DejaVuSans-32"/>
      </g>
     </g>
    </g>
    <g id="ytick_2">
     <g id="line2d_10">
      <g>
       <use xlink:href="#m5528811de8" x="144" y="328.640829" style="stroke: #000000; stroke-width: 0.8"/>
      </g>
     </g>
     <g id="text_10">
      <!-- 4 -->
      <g transform="translate(130.6375 332.440048) scale(0.1 -0.1)">
       <use xlink:href="#DejaVuSans-34"/>
      </g>
     </g>
    </g>
    <g id="ytick_3">
     <g id="line2d_11">
      <g>
       <use xlink:href="#m5528811de8" x="144" y="244.072791" style="stroke: #000000; stroke-width: 0.8"/>
      </g>
     </g>
     <g id="text_11">
      <!-- 6 -->
      <g transform="translate(130.6375 247.87201) scale(0.1 -0.1)">
       <use xlink:href="#DejaVuSans-36"/>
      </g>
     </g>
    </g>
    <g id="ytick_4">
     <g id="line2d_12">
      <g>
       <use xlink:href="#m5528811de8" x="144" y="159.504754" style="stroke: #000000; stroke-width: 0.8"/>
      </g>
     </g>
     <g id="text_12">
      <!-- 8 -->
      <g transform="translate(130.6375 163.303972) scale(0.1 -0.1)">
       <defs>
        <path id="DejaVuSans-38" d="M 2034 2216 
Q 1584 2216 1326 1975 
Q 1069 1734 1069 1313 
Q 1069 891 1326 650 
Q 1584 409 2034 409 
Q 2484 409 2743 651 
Q 3003 894 3003 1313 
Q 3003 1734 2745 1975 
Q 2488 2216 2034 2216 
z
M 1403 2484 
Q 997 2584 770 2862 
Q 544 3141 544 3541 
Q 544 4100 942 4425 
Q 1341 4750 2034 4750 
Q 2731 4750 3128 4425 
Q 3525 4100 3525 3541 
Q 3525 3141 3298 2862 
Q 3072 2584 2669 2484 
Q 3125 2378 3379 2068 
Q 3634 1759 3634 1313 
Q 3634 634 3220 271 
Q 2806 -91 2034 -91 
Q 1263 -91 848 271 
Q 434 634 434 1313 
Q 434 1759 690 2068 
Q 947 2378 1403 2484 
z
M 1172 3481 
Q 1172 3119 1398 2916 
Q 1625 2713 2034 2713 
Q 2441 2713 2670 2916 
Q 2900 3119 2900 3481 
Q 2900 3844 2670 4047 
Q 2441 4250 2034 4250 
Q 1625 4250 1398 4047 
Q 1172 3844 1172 3481 
z
" transform="scale(0.015625)"/>
       </defs>
       <use xlink:href="#DejaVuSans-38"/>
      </g>
     </g>
    </g>
    <g id="ytick_5">
     <g id="line2d_13">
      <g>
       <use xlink:href="#m5528811de8" x="144" y="74.936716" style="stroke: #000000; stroke-width: 0.8"/>
      </g>
     </g>
     <g id="text_13">
      <!-- 10 -->
      <g transform="translate(124.275 78.735935) scale(0.1 -0.1)">
       <use xlink:href="#DejaVuSans-31"/>
       <use xlink:href="#DejaVuSans-30" x="63.623047"/>
      </g>
     </g>
    </g>
   </g>
   <g id="patch_3">
    <path d="M 144 448.56 
L 144 60.48 
" style="fill: none; stroke: #000000; stroke-width: 0.8; stroke-linejoin: miter; stroke-linecap: square"/>
   </g>
   <g id="patch_4">
    <path d="M 1036.8 448.56 
L 1036.8 60.48 
" style="fill: none; stroke: #000000; stroke-width: 0.8; stroke-linejoin: miter; stroke-linecap: square"/>
   </g>
   <g id="patch_5">
    <path d="M 144 448.56 
L 1036.8 448.56 
" style="fill: none; stroke: #000000; stroke-width: 0.8; stroke-linejoin: miter; stroke-linecap: square"/>
   </g>
   <g id="patch_6">
    <path d="M 144 60.48 
L 1036.8 60.48 
" style="fill: none; stroke: #000000; stroke-width: 0.8; stroke-linejoin: miter; stroke-linecap: square"/>
   </g>
  </g>
 </g>
 <defs>
  <clipPath id="pa0366cb3b3">
   <rect x="144" y="60.48" width="892.8" height="388.08"/>
  </clipPath>
 </defs>
</svg>
