<?xml version="1.0" encoding="utf-8" standalone="no"?>
<!DOCTYPE svg PUBLIC "-//W3C//DTD SVG 1.1//EN"
  "http://www.w3.org/Graphics/SVG/1.1/DTD/svg11.dtd">
<svg xmlns:xlink="http://www.w3.org/1999/xlink" width="1152pt" height="504pt" viewBox="0 0 1152 504" xmlns="http://www.w3.org/2000/svg" version="1.1">
 <metadata>
  <rdf:RDF xmlns:dc="http://purl.org/dc/elements/1.1/" xmlns:cc="http://creativecommons.org/ns#" xmlns:rdf="http://www.w3.org/1999/02/22-rdf-syntax-ns#">
   <cc:Work>
    <dc:type rdf:resource="http://purl.org/dc/dcmitype/StillImage"/>
    <dc:date>2026-02-03T00:06:07.997417</dc:date>
    <dc:format>image/svg+xml</dc:format>
    <dc:creator>
     <cc:Agent>
      <dc:title>Matplotlib v3.9.4, https://matplotlib.org/</dc:title>
     </cc:Agent>
    </dc:creator>
   </cc:Work>
  </rdf:RDF>
 </metadata>
 <defs>
  <style type="text/css">*{stroke-linejoin: round; stroke-linecap: butt}</style>
 </defs>
 <g id="figure_1">
  <g id="patch_1">
   <path d="M 0 504 
L 1152 504 
L 1152 0 
L 0 0 
z
" style="fill: #ffffff"/>
  </g>
  <g id="axes_1">
   <g id="patch_2">
    <path d="M 144 448.56 
L 1036.8 448.56 
L 1036.8 60.48 
L 144 60.48 
z
" style="fill: #ffffff"/>
   </g>
   <g id="PathCollection_1">
    <defs>
     <path id="m0ae54aa31c" d="M 0 2.236068 
C 0.593012 2.236068 1.161816 2.000462 1.581139 1.581139 
C 2.000462 1.161816 2.236068 0.593012 2.236068 0 
C 2.236068 -0.593012 2.000462 -1.161816 1.581139 -1.581139 
C 1.161816 -2.000462 0.593012 -2.236068 0 -2.236068 
C -0.593012 -2.236068 -1.161816 -2.000462 -1.581139 -1.581139 
C -2.000462 -1.161816 -2.236068 -0.593012 -2.236068 0 
C -2.236068 0.593012 -2.000462 1.161816 -1.581139 1.581139 
C -1.161816 2.000462 -0.593012 2.236068 0 2.236068 
z
" style="stroke: #1f77b4"/>
    </defs>
    <g clip-path="url(#p4b1b9630cf)">
     <use xlink:href="#m0ae54aa31c" x="207.028072" y="421.7325" style="fill: #1f77b4; stroke: #1f77b4"/>
     <use xlink:href="#m0ae54aa31c" x="189.008163" y="430.92" style="fill: #1f77b4; stroke: #1f77b4"/>
     <use xlink:href="#m0ae54aa31c" x="185.731816" y="375.795" style="fill: #1f77b4; stroke: #1f77b4"/>
     <use xlink:href="#m0ae54aa31c" x="186.141359" y="430.92" style="fill: #1f77b4; stroke: #1f77b4"/>
     <use xlink:href="#m0ae54aa31c" x="209.894876" y="265.545" style="fill: #1f77b4; stroke: #1f77b4"/>
     <use xlink:href="#m0ae54aa31c" x="204.161268" y="392.3325" style="fill: #1f77b4; stroke: #1f77b4"/>
     <use xlink:href="#m0ae54aa31c" x="198.018118" y="407.0325" style="fill: #1f77b4; stroke: #1f77b4"/>
     <use xlink:href="#m0ae54aa31c" x="187.779533" y="412.545" style="fill: #1f77b4; stroke: #1f77b4"/>
     <use xlink:href="#m0ae54aa31c" x="189.82725" y="339.045" style="fill: #1f77b4; stroke: #1f77b4"/>
     <use xlink:href="#m0ae54aa31c" x="251.668302" y="392.3325" style="fill: #1f77b4; stroke: #1f77b4"/>
     <use xlink:href="#m0ae54aa31c" x="212.352136" y="265.545" style="fill: #1f77b4; stroke: #1f77b4"/>
     <use xlink:href="#m0ae54aa31c" x="274.193188" y="369.18" style="fill: #1f77b4; stroke: #1f77b4"/>
     <use xlink:href="#m0ae54aa31c" x="218.085744" y="375.795" style="fill: #1f77b4; stroke: #1f77b4"/>
     <use xlink:href="#m0ae54aa31c" x="185.731816" y="403.3575" style="fill: #1f77b4; stroke: #1f77b4"/>
     <use xlink:href="#m0ae54aa31c" x="186.141359" y="357.42" style="fill: #1f77b4; stroke: #1f77b4"/>
     <use xlink:href="#m0ae54aa31c" x="192.694054" y="316.995" style="fill: #1f77b4; stroke: #1f77b4"/>
     <use xlink:href="#m0ae54aa31c" x="185.731816" y="302.295" style="fill: #1f77b4; stroke: #1f77b4"/>
     <use xlink:href="#m0ae54aa31c" x="286.889033" y="190.2075" style="fill: #1f77b4; stroke: #1f77b4"/>
     <use xlink:href="#m0ae54aa31c" x="252.077845" y="322.14" style="fill: #1f77b4; stroke: #1f77b4"/>
     <use xlink:href="#m0ae54aa31c" x="191.465423" y="375.795" style="fill: #1f77b4; stroke: #1f77b4"/>
     <use xlink:href="#m0ae54aa31c" x="195.970401" y="401.52" style="fill: #1f77b4; stroke: #1f77b4"/>
     <use xlink:href="#m0ae54aa31c" x="220.952547" y="384.9825" style="fill: #1f77b4; stroke: #1f77b4"/>
     <use xlink:href="#m0ae54aa31c" x="261.087799" y="198.2925" style="fill: #1f77b4; stroke: #1f77b4"/>
     <use xlink:href="#m0ae54aa31c" x="207.028072" y="208.5825" style="fill: #1f77b4; stroke: #1f77b4"/>
     <use xlink:href="#m0ae54aa31c" x="209.485333" y="375.795" style="fill: #1f77b4; stroke: #1f77b4"/>
     <use xlink:href="#m0ae54aa31c" x="185.322273" y="380.94" style="fill: #1f77b4; stroke: #1f77b4"/>
     <use xlink:href="#m0ae54aa31c" x="347.501454" y="366.975" style="fill: #1f77b4; stroke: #1f77b4"/>
     <use xlink:href="#m0ae54aa31c" x="200.475378" y="394.17" style="fill: #1f77b4; stroke: #1f77b4"/>
     <use xlink:href="#m0ae54aa31c" x="228.733872" y="173.67" style="fill: #1f77b4; stroke: #1f77b4"/>
     <use xlink:href="#m0ae54aa31c" x="346.682368" y="157.1325" style="fill: #1f77b4; stroke: #1f77b4"/>
     <use xlink:href="#m0ae54aa31c" x="254.944649" y="403.3575" style="fill: #1f77b4; stroke: #1f77b4"/>
     <use xlink:href="#m0ae54aa31c" x="229.143415" y="298.9875" style="fill: #1f77b4; stroke: #1f77b4"/>
     <use xlink:href="#m0ae54aa31c" x="318.833417" y="241.6575" style="fill: #1f77b4; stroke: #1f77b4"/>
     <use xlink:href="#m0ae54aa31c" x="186.550903" y="430.92" style="fill: #1f77b4; stroke: #1f77b4"/>
     <use xlink:href="#m0ae54aa31c" x="195.970401" y="357.42" style="fill: #1f77b4; stroke: #1f77b4"/>
     <use xlink:href="#m0ae54aa31c" x="275.421818" y="339.045" style="fill: #1f77b4; stroke: #1f77b4"/>
     <use xlink:href="#m0ae54aa31c" x="210.304419" y="375.795" style="fill: #1f77b4; stroke: #1f77b4"/>
     <use xlink:href="#m0ae54aa31c" x="243.477434" y="219.6075" style="fill: #1f77b4; stroke: #1f77b4"/>
     <use xlink:href="#m0ae54aa31c" x="212.76168" y="370.2825" style="fill: #1f77b4; stroke: #1f77b4"/>
     <use xlink:href="#m0ae54aa31c" x="287.70812" y="265.545" style="fill: #1f77b4; stroke: #1f77b4"/>
     <use xlink:href="#m0ae54aa31c" x="263.135516" y="235.41" style="fill: #1f77b4; stroke: #1f77b4"/>
     <use xlink:href="#m0ae54aa31c" x="239.382" y="332.0625" style="fill: #1f77b4; stroke: #1f77b4"/>
     <use xlink:href="#m0ae54aa31c" x="216.038027" y="278.4075" style="fill: #1f77b4; stroke: #1f77b4"/>
     <use xlink:href="#m0ae54aa31c" x="193.922684" y="105.315" style="fill: #1f77b4; stroke: #1f77b4"/>
     <use xlink:href="#m0ae54aa31c" x="220.543004" y="295.3125" style="fill: #1f77b4; stroke: #1f77b4"/>
     <use xlink:href="#m0ae54aa31c" x="583.80799" y="164.4825" style="fill: #1f77b4; stroke: #1f77b4"/>
     <use xlink:href="#m0ae54aa31c" x="288.527207" y="296.7825" style="fill: #1f77b4; stroke: #1f77b4"/>
     <use xlink:href="#m0ae54aa31c" x="295.489444" y="234.675" style="fill: #1f77b4; stroke: #1f77b4"/>
     <use xlink:href="#m0ae54aa31c" x="189.82725" y="249.7425" style="fill: #1f77b4; stroke: #1f77b4"/>
     <use xlink:href="#m0ae54aa31c" x="195.151314" y="168.1575" style="fill: #1f77b4; stroke: #1f77b4"/>
     <use xlink:href="#m0ae54aa31c" x="245.115607" y="219.975" style="fill: #1f77b4; stroke: #1f77b4"/>
     <use xlink:href="#m0ae54aa31c" x="289.755837" y="256.3575" style="fill: #1f77b4; stroke: #1f77b4"/>
     <use xlink:href="#m0ae54aa31c" x="305.318485" y="212.2575" style="fill: #1f77b4; stroke: #1f77b4"/>
     <use xlink:href="#m0ae54aa31c" x="398.694378" y="157.1325" style="fill: #1f77b4; stroke: #1f77b4"/>
     <use xlink:href="#m0ae54aa31c" x="256.173279" y="228.795" style="fill: #1f77b4; stroke: #1f77b4"/>
     <use xlink:href="#m0ae54aa31c" x="238.15337" y="258.5625" style="fill: #1f77b4; stroke: #1f77b4"/>
     <use xlink:href="#m0ae54aa31c" x="289.755837" y="120.3825" style="fill: #1f77b4; stroke: #1f77b4"/>
     <use xlink:href="#m0ae54aa31c" x="491.251184" y="79.9575" style="fill: #1f77b4; stroke: #1f77b4"/>
     <use xlink:href="#m0ae54aa31c" x="201.294465" y="157.1325" style="fill: #1f77b4; stroke: #1f77b4"/>
     <use xlink:href="#m0ae54aa31c" x="336.03424" y="198.66" style="fill: #1f77b4; stroke: #1f77b4"/>
     <use xlink:href="#m0ae54aa31c" x="315.147527" y="146.1075" style="fill: #1f77b4; stroke: #1f77b4"/>
     <use xlink:href="#m0ae54aa31c" x="378.626752" y="298.9875" style="fill: #1f77b4; stroke: #1f77b4"/>
     <use xlink:href="#m0ae54aa31c" x="317.604787" y="148.3125" style="fill: #1f77b4; stroke: #1f77b4"/>
     <use xlink:href="#m0ae54aa31c" x="276.650448" y="113.0325" style="fill: #1f77b4; stroke: #1f77b4"/>
     <use xlink:href="#m0ae54aa31c" x="325.386111" y="265.545" style="fill: #1f77b4; stroke: #1f77b4"/>
     <use xlink:href="#m0ae54aa31c" x="370.845428" y="127.7325" style="fill: #1f77b4; stroke: #1f77b4"/>
     <use xlink:href="#m0ae54aa31c" x="242.248804" y="228.4275" style="fill: #1f77b4; stroke: #1f77b4"/>
     <use xlink:href="#m0ae54aa31c" x="289.346293" y="145.74" style="fill: #1f77b4; stroke: #1f77b4"/>
     <use xlink:href="#m0ae54aa31c" x="261.497343" y="283.92" style="fill: #1f77b4; stroke: #1f77b4"/>
     <use xlink:href="#m0ae54aa31c" x="363.064103" y="256.3575" style="fill: #1f77b4; stroke: #1f77b4"/>
     <use xlink:href="#m0ae54aa31c" x="209.075789" y="168.8925" style="fill: #1f77b4; stroke: #1f77b4"/>
     <use xlink:href="#m0ae54aa31c" x="216.038027" y="217.77" style="fill: #1f77b4; stroke: #1f77b4"/>
     <use xlink:href="#m0ae54aa31c" x="327.843372" y="90.9825" style="fill: #1f77b4; stroke: #1f77b4"/>
     <use xlink:href="#m0ae54aa31c" x="405.656616" y="142.8" style="fill: #1f77b4; stroke: #1f77b4"/>
     <use xlink:href="#m0ae54aa31c" x="522.786025" y="122.5875" style="fill: #1f77b4; stroke: #1f77b4"/>
     <use xlink:href="#m0ae54aa31c" x="289.755837" y="83.6325" style="fill: #1f77b4; stroke: #1f77b4"/>
     <use xlink:href="#m0ae54aa31c" x="332.348349" y="118.545" style="fill: #1f77b4; stroke: #1f77b4"/>
     <use xlink:href="#m0ae54aa31c" x="332.348349" y="78.12" style="fill: #1f77b4; stroke: #1f77b4"/>
     <use xlink:href="#m0ae54aa31c" x="184.581818" y="142.4325" style="fill: #1f77b4; stroke: #1f77b4"/>
     <use xlink:href="#m0ae54aa31c" x="366.34045" y="78.12" style="fill: #1f77b4; stroke: #1f77b4"/>
     <use xlink:href="#m0ae54aa31c" x="345.863281" y="78.12" style="fill: #1f77b4; stroke: #1f77b4"/>
     <use xlink:href="#m0ae54aa31c" x="404.837529" y="90.9825" style="fill: #1f77b4; stroke: #1f77b4"/>
     <use xlink:href="#m0ae54aa31c" x="329.481545" y="248.2725" style="fill: #1f77b4; stroke: #1f77b4"/>
     <use xlink:href="#m0ae54aa31c" x="407.704333" y="78.12" style="fill: #1f77b4; stroke: #1f77b4"/>
     <use xlink:href="#m0ae54aa31c" x="347.091911" y="81.795" style="fill: #1f77b4; stroke: #1f77b4"/>
     <use xlink:href="#m0ae54aa31c" x="457.668626" y="95.76" style="fill: #1f77b4; stroke: #1f77b4"/>
     <use xlink:href="#m0ae54aa31c" x="400.742095" y="78.12" style="fill: #1f77b4; stroke: #1f77b4"/>
     <use xlink:href="#m0ae54aa31c" x="562.10219" y="78.12" style="fill: #1f77b4; stroke: #1f77b4"/>
     <use xlink:href="#m0ae54aa31c" x="400.332552" y="78.12" style="fill: #1f77b4; stroke: #1f77b4"/>
     <use xlink:href="#m0ae54aa31c" x="457.259083" y="85.8375" style="fill: #1f77b4; stroke: #1f77b4"/>
     <use xlink:href="#m0ae54aa31c" x="417.533374" y="78.12" style="fill: #1f77b4; stroke: #1f77b4"/>
     <use xlink:href="#m0ae54aa31c" x="289.755837" y="78.12" style="fill: #1f77b4; stroke: #1f77b4"/>
     <use xlink:href="#m0ae54aa31c" x="372.483601" y="78.12" style="fill: #1f77b4; stroke: #1f77b4"/>
     <use xlink:href="#m0ae54aa31c" x="403.608899" y="84.735" style="fill: #1f77b4; stroke: #1f77b4"/>
     <use xlink:href="#m0ae54aa31c" x="527.700545" y="78.12" style="fill: #1f77b4; stroke: #1f77b4"/>
     <use xlink:href="#m0ae54aa31c" x="534.662783" y="78.12" style="fill: #1f77b4; stroke: #1f77b4"/>
     <use xlink:href="#m0ae54aa31c" x="348.320541" y="78.12" style="fill: #1f77b4; stroke: #1f77b4"/>
     <use xlink:href="#m0ae54aa31c" x="198.837204" y="85.47" style="fill: #1f77b4; stroke: #1f77b4"/>
     <use xlink:href="#m0ae54aa31c" x="347.091911" y="78.12" style="fill: #1f77b4; stroke: #1f77b4"/>
     <use xlink:href="#m0ae54aa31c" x="448.249128" y="81.795" style="fill: #1f77b4; stroke: #1f77b4"/>
     <use xlink:href="#m0ae54aa31c" x="996.218182" y="79.9575" style="fill: #1f77b4; stroke: #1f77b4"/>
    </g>
   </g>
   <g id="matplotlib.axis_1">
    <g id="xtick_1">
     <g id="line2d_1">
      <defs>
       <path id="mf5311f4422" d="M 0 0 
L 0 3.5 
" style="stroke: #000000; stroke-width: 0.8"/>
      </defs>
      <g>
       <use xlink:href="#mf5311f4422" x="184.093642" y="448.56" style="stroke: #000000; stroke-width: 0.8"/>
      </g>
     </g>
     <g id="text_1">
      <!-- 0 -->
      <g transform="translate(180.912392 463.158437) scale(0.1 -0.1)">
       <defs>
        <path id="DejaVuSans-30" d="M 2034 4250 
Q 1547 4250 1301 3770 
Q 1056 3291 1056 2328 
Q 1056 1369 1301 889 
Q 1547 409 2034 409 
Q 2525 409 2770 889 
Q 3016 1369 3016 2328 
Q 3016 3291 2770 3770 
Q 2525 4250 2034 4250 
z
M 2034 4750 
Q 2819 4750 3233 4129 
Q 3647 3509 3647 2328 
Q 3647 1150 3233 529 
Q 2819 -91 2034 -91 
Q 1250 -91 836 529 
Q 422 1150 422 2328 
Q 422 3509 836 4129 
Q 1250 4750 2034 4750 
z
" transform="scale(0.015625)"/>
       </defs>
       <use xlink:href="#DejaVuSans-30"/>
      </g>
     </g>
    </g>
    <g id="xtick_2">
     <g id="line2d_2">
      <g>
       <use xlink:href="#mf5311f4422" x="286.47949" y="448.56" style="stroke: #000000; stroke-width: 0.8"/>
      </g>
     </g>
     <g id="text_2">
      <!-- 250 -->
      <g transform="translate(276.93574 463.158437) scale(0.1 -0.1)">
       <defs>
        <path id="DejaVuSans-32" d="M 1228 531 
L 3431 531 
L 3431 0 
L 469 0 
L 469 531 
Q 828 903 1448 1529 
Q 2069 2156 2228 2338 
Q 2531 2678 2651 2914 
Q 2772 3150 2772 3378 
Q 2772 3750 2511 3984 
Q 2250 4219 1831 4219 
Q 1534 4219 1204 4116 
Q 875 4013 500 3803 
L 500 4441 
Q 881 4594 1212 4672 
Q 1544 4750 1819 4750 
Q 2544 4750 2975 4387 
Q 3406 4025 3406 3419 
Q 3406 3131 3298 2873 
Q 3191 2616 2906 2266 
Q 2828 2175 2409 1742 
Q 1991 1309 1228 531 
z
" transform="scale(0.015625)"/>
        <path id="DejaVuSans-35" d="M 691 4666 
L 3169 4666 
L 3169 4134 
L 1269 4134 
L 1269 2991 
Q 1406 3038 1543 3061 
Q 1681 3084 1819 3084 
Q 2600 3084 3056 2656 
Q 3513 2228 3513 1497 
Q 3513 744 3044 326 
Q 2575 -91 1722 -91 
Q 1428 -91 1123 -41 
Q 819 9 494 109 
L 494 744 
Q 775 591 1075 516 
Q 1375 441 1709 441 
Q 2250 441 2565 725 
Q 2881 1009 2881 1497 
Q 2881 1984 2565 2268 
Q 2250 2553 1709 2553 
Q 1456 2553 1204 2497 
Q 953 2441 691 2322 
L 691 4666 
z
" transform="scale(0.015625)"/>
       </defs>
       <use xlink:href="#DejaVuSans-32"/>
       <use xlink:href="#DejaVuSans-35" x="63.623047"/>
       <use xlink:href="#DejaVuSans-30" x="127.246094"/>
      </g>
     </g>
    </g>
    <g id="xtick_3">
     <g id="line2d_3">
      <g>
       <use xlink:href="#mf5311f4422" x="388.865337" y="448.56" style="stroke: #000000; stroke-width: 0.8"/>
      </g>
     </g>
     <g id="text_3">
      <!-- 500 -->
      <g transform="translate(379.321587 463.158437) scale(0.1 -0.1)">
       <use xlink:href="#DejaVuSans-35"/>
       <use xlink:href="#DejaVuSans-30" x="63.623047"/>
       <use xlink:href="#DejaVuSans-30" x="127.246094"/>
      </g>
     </g>
    </g>
    <g id="xtick_4">
     <g id="line2d_4">
      <g>
       <use xlink:href="#mf5311f4422" x="491.251184" y="448.56" style="stroke: #000000; stroke-width: 0.8"/>
      </g>
     </g>
     <g id="text_4">
      <!-- 750 -->
      <g transform="translate(481.707434 463.158437) scale(0.1 -0.1)">
       <defs>
        <path id="DejaVuSans-37" d="M 525 4666 
L 3525 4666 
L 3525 4397 
L 1831 0 
L 1172 0 
L 2766 4134 
L 525 4134 
L 525 4666 
z
" transform="scale(0.015625)"/>
       </defs>
       <use xlink:href="#DejaVuSans-37"/>
       <use xlink:href="#DejaVuSans-35" x="63.623047"/>
       <use xlink:href="#DejaVuSans-30" x="127.246094"/>
      </g>
     </g>
    </g>
    <g id="xtick_5">
     <g id="line2d_5">
      <g>
       <use xlink:href="#mf5311f4422" x="593.637031" y="448.56" style="stroke: #000000; stroke-width: 0.8"/>
      </g>
     </g>
     <g id="text_5">
      <!-- 1000 -->
      <g transform="translate(580.912031 463.158437) scale(0.1 -0.1)">
       <defs>
        <path id="DejaVuSans-31" d="M 794 531 
L 1825 531 
L 1825 4091 
L 703 3866 
L 703 4441 
L 1819 4666 
L 2450 4666 
L 2450 531 
L 3481 531 
L 3481 0 
L 794 0 
L 794 531 
z
" transform="scale(0.015625)"/>
       </defs>
       <use xlink:href="#DejaVuSans-31"/>
       <use xlink:href="#DejaVuSans-30" x="63.623047"/>
       <use xlink:href="#DejaVuSans-30" x="127.246094"/>
       <use xlink:href="#DejaVuSans-30" x="190.869141"/>
      </g>
     </g>
    </g>
    <g id="xtick_6">
     <g id="line2d_6">
      <g>
       <use xlink:href="#mf5311f4422" x="696.022878" y="448.56" style="stroke: #000000; stroke-width: 0.8"/>
      </g>
     </g>
     <g id="text_6">
      <!-- 1250 -->
      <g transform="translate(683.297878 463.158437) scale(0.1 -0.1)">
       <use xlink:href="#DejaVuSans-31"/>
       <use xlink:href="#DejaVuSans-32" x="63.623047"/>
       <use xlink:href="#DejaVuSans-35" x="127.246094"/>
       <use xlink:href="#DejaVuSans-30" x="190.869141"/>
      </g>
     </g>
    </g>
    <g id="xtick_7">
     <g id="line2d_7">
      <g>
       <use xlink:href="#mf5311f4422" x="798.408725" y="448.56" style="stroke: #000000; stroke-width: 0.8"/>
      </g>
     </g>
     <g id="text_7">
      <!-- 1500 -->
      <g transform="translate(785.683725 463.158437) scale(0.1 -0.1)">
       <use xlink:href="#DejaVuSans-31"/>
       <use xlink:href="#DejaVuSans-35" x="63.623047"/>
       <use xlink:href="#DejaVuSans-30" x="127.246094"/>
       <use xlink:href="#DejaVuSans-30" x="190.869141"/>
      </g>
     </g>
    </g>
    <g id="xtick_8">
     <g id="line2d_8">
      <g>
       <use xlink:href="#mf5311f4422" x="900.794572" y="448.56" style="stroke: #000000; stroke-width: 0.8"/>
      </g>
     </g>
     <g id="text_8">
      <!-- 1750 -->
      <g transform="translate(888.069572 463.158437) scale(0.1 -0.1)">
       <use xlink:href="#DejaVuSans-31"/>
       <use xlink:href="#DejaVuSans-37" x="63.623047"/>
       <use xlink:href="#DejaVuSans-35" x="127.246094"/>
       <use xlink:href="#DejaVuSans-30" x="190.869141"/>
      </g>
     </g>
    </g>
    <g id="xtick_9">
     <g id="line2d_9">
      <g>
       <use xlink:href="#mf5311f4422" x="1003.180419" y="448.56" style="stroke: #000000; stroke-width: 0.8"/>
      </g>
     </g>
     <g id="text_9">
      <!-- 2000 -->
      <g transform="translate(990.455419 463.158437) scale(0.1 -0.1)">
       <use xlink:href="#DejaVuSans-32"/>
       <use xlink:href="#DejaVuSans-30" x="63.623047"/>
       <use xlink:href="#DejaVuSans-30" x="127.246094"/>
       <use xlink:href="#DejaVuSans-30" x="190.869141"/>
      </g>
     </g>
    </g>
    <g id="text_10">
     <!-- Higher Ed per 100000 -->
     <g transform="translate(535.28125 476.836563) scale(0.1 -0.1)">
      <defs>
       <path id="DejaVuSans-48" d="M 628 4666 
L 1259 4666 
L 1259 2753 
L 3553 2753 
L 3553 4666 
L 4184 4666 
L 4184 0 
L 3553 0 
L 3553 2222 
L 1259 2222 
L 1259 0 
L 628 0 
L 628 4666 
z
" transform="scale(0.015625)"/>
       <path id="DejaVuSans-69" d="M 603 3500 
L 1178 3500 
L 1178 0 
L 603 0 
L 603 3500 
z
M 603 4863 
L 1178 4863 
L 1178 4134 
L 603 4134 
L 603 4863 
z
" transform="scale(0.015625)"/>
       <path id="DejaVuSans-67" d="M 2906 1791 
Q 2906 2416 2648 2759 
Q 2391 3103 1925 3103 
Q 1463 3103 1205 2759 
Q 947 2416 947 1791 
Q 947 1169 1205 825 
Q 1463 481 1925 481 
Q 2391 481 2648 825 
Q 2906 1169 2906 1791 
z
M 3481 434 
Q 3481 -459 3084 -895 
Q 2688 -1331 1869 -1331 
Q 1566 -1331 1297 -1286 
Q 1028 -1241 775 -1147 
L 775 -588 
Q 1028 -725 1275 -790 
Q 1522 -856 1778 -856 
Q 2344 -856 2625 -561 
Q 2906 -266 2906 331 
L 2906 616 
Q 2728 306 2450 153 
Q 2172 0 1784 0 
Q 1141 0 747 490 
Q 353 981 353 1791 
Q 353 2603 747 3093 
Q 1141 3584 1784 3584 
Q 2172 3584 2450 3431 
Q 2728 3278 2906 2969 
L 2906 3500 
L 3481 3500 
L 3481 434 
z
" transform="scale(0.015625)"/>
       <path id="DejaVuSans-68" d="M 3513 2113 
L 3513 0 
L 2938 0 
L 2938 2094 
Q 2938 2591 2744 2837 
Q 2550 3084 2163 3084 
Q 1697 3084 1428 2787 
Q 1159 2491 1159 1978 
L 1159 0 
L 581 0 
L 581 4863 
L 1159 4863 
L 1159 2956 
Q 1366 3272 1645 3428 
Q 1925 3584 2291 3584 
Q 2894 3584 3203 3211 
Q 3513 2838 3513 2113 
z
" transform="scale(0.015625)"/>
       <path id="DejaVuSans-65" d="M 3597 1894 
L 3597 1613 
L 953 1613 
Q 991 1019 1311 708 
Q 1631 397 2203 397 
Q 2534 397 2845 478 
Q 3156 559 3463 722 
L 3463 178 
Q 3153 47 2828 -22 
Q 2503 -91 2169 -91 
Q 1331 -91 842 396 
Q 353 884 353 1716 
Q 353 2575 817 3079 
Q 1281 3584 2069 3584 
Q 2775 3584 3186 3129 
Q 3597 2675 3597 1894 
z
M 3022 2063 
Q 3016 2534 2758 2815 
Q 2500 3097 2075 3097 
Q 1594 3097 1305 2825 
Q 1016 2553 972 2059 
L 3022 2063 
z
" transform="scale(0.015625)"/>
       <path id="DejaVuSans-72" d="M 2631 2963 
Q 2534 3019 2420 3045 
Q 2306 3072 2169 3072 
Q 1681 3072 1420 2755 
Q 1159 2438 1159 1844 
L 1159 0 
L 581 0 
L 581 3500 
L 1159 3500 
L 1159 2956 
Q 1341 3275 1631 3429 
Q 1922 3584 2338 3584 
Q 2397 3584 2469 3576 
Q 2541 3569 2628 3553 
L 2631 2963 
z
" transform="scale(0.015625)"/>
       <path id="DejaVuSans-20" transform="scale(0.015625)"/>
       <path id="DejaVuSans-45" d="M 628 4666 
L 3578 4666 
L 3578 4134 
L 1259 4134 
L 1259 2753 
L 3481 2753 
L 3481 2222 
L 1259 2222 
L 1259 531 
L 3634 531 
L 3634 0 
L 628 0 
L 628 4666 
z
" transform="scale(0.015625)"/>
       <path id="DejaVuSans-64" d="M 2906 2969 
L 2906 4863 
L 3481 4863 
L 3481 0 
L 2906 0 
L 2906 525 
Q 2725 213 2448 61 
Q 2172 -91 1784 -91 
Q 1150 -91 751 415 
Q 353 922 353 1747 
Q 353 2572 751 3078 
Q 1150 3584 1784 3584 
Q 2172 3584 2448 3432 
Q 2725 3281 2906 2969 
z
M 947 1747 
Q 947 1113 1208 752 
Q 1469 391 1925 391 
Q 2381 391 2643 752 
Q 2906 1113 2906 1747 
Q 2906 2381 2643 2742 
Q 2381 3103 1925 3103 
Q 1469 3103 1208 2742 
Q 947 2381 947 1747 
z
" transform="scale(0.015625)"/>
       <path id="DejaVuSans-70" d="M 1159 525 
L 1159 -1331 
L 581 -1331 
L 581 3500 
L 1159 3500 
L 1159 2969 
Q 1341 3281 1617 3432 
Q 1894 3584 2278 3584 
Q 2916 3584 3314 3078 
Q 3713 2572 3713 1747 
Q 3713 922 3314 415 
Q 2916 -91 2278 -91 
Q 1894 -91 1617 61 
Q 1341 213 1159 525 
z
M 3116 1747 
Q 3116 2381 2855 2742 
Q 2594 3103 2138 3103 
Q 1681 3103 1420 2742 
Q 1159 2381 1159 1747 
Q 1159 1113 1420 752 
Q 1681 391 2138 391 
Q 2594 391 2855 752 
Q 3116 1113 3116 1747 
z
" transform="scale(0.015625)"/>
      </defs>
      <use xlink:href="#DejaVuSans-48"/>
      <use xlink:href="#DejaVuSans-69" x="75.195312"/>
      <use xlink:href="#DejaVuSans-67" x="102.978516"/>
      <use xlink:href="#DejaVuSans-68" x="166.455078"/>
      <use xlink:href="#DejaVuSans-65" x="229.833984"/>
      <use xlink:href="#DejaVuSans-72" x="291.357422"/>
      <use xlink:href="#DejaVuSans-20" x="332.470703"/>
      <use xlink:href="#DejaVuSans-45" x="364.257812"/>
      <use xlink:href="#DejaVuSans-64" x="427.441406"/>
      <use xlink:href="#DejaVuSans-20" x="490.917969"/>
      <use xlink:href="#DejaVuSans-70" x="522.705078"/>
      <use xlink:href="#DejaVuSans-65" x="586.181641"/>
      <use xlink:href="#DejaVuSans-72" x="647.705078"/>
      <use xlink:href="#DejaVuSans-20" x="688.818359"/>
      <use xlink:href="#DejaVuSans-31" x="720.605469"/>
      <use xlink:href="#DejaVuSans-30" x="784.228516"/>
      <use xlink:href="#DejaVuSans-30" x="847.851562"/>
      <use xlink:href="#DejaVuSans-30" x="911.474609"/>
      <use xlink:href="#DejaVuSans-30" x="975.097656"/>
      <use xlink:href="#DejaVuSans-30" x="1038.720703"/>
     </g>
    </g>
   </g>
   <g id="matplotlib.axis_2">
    <g id="ytick_1">
     <g id="line2d_10">
      <defs>
       <path id="m4c82fe01a2" d="M 0 0 
L -3.5 0 
" style="stroke: #000000; stroke-width: 0.8"/>
      </defs>
      <g>
       <use xlink:href="#m4c82fe01a2" x="144" y="440.1075" style="stroke: #000000; stroke-width: 0.8"/>
      </g>
     </g>
     <g id="text_11">
      <!-- 0 -->
      <g transform="translate(130.6375 443.906719) scale(0.1 -0.1)">
       <use xlink:href="#DejaVuSans-30"/>
      </g>
     </g>
    </g>
    <g id="ytick_2">
     <g id="line2d_11">
      <g>
       <use xlink:href="#m4c82fe01a2" x="144" y="366.6075" style="stroke: #000000; stroke-width: 0.8"/>
      </g>
     </g>
     <g id="text_12">
      <!-- 20 -->
      <g transform="translate(124.275 370.406719) scale(0.1 -0.1)">
       <use xlink:href="#DejaVuSans-32"/>
       <use xlink:href="#DejaVuSans-30" x="63.623047"/>
      </g>
     </g>
    </g>
    <g id="ytick_3">
     <g id="line2d_12">
      <g>
       <use xlink:href="#m4c82fe01a2" x="144" y="293.1075" style="stroke: #000000; stroke-width: 0.8"/>
      </g>
     </g>
     <g id="text_13">
      <!-- 40 -->
      <g transform="translate(124.275 296.906719) scale(0.1 -0.1)">
       <defs>
        <path id="DejaVuSans-34" d="M 2419 4116 
L 825 1625 
L 2419 1625 
L 2419 4116 
z
M 2253 4666 
L 3047 4666 
L 3047 1625 
L 3713 1625 
L 3713 1100 
L 3047 1100 
L 3047 0 
L 2419 0 
L 2419 1100 
L 313 1100 
L 313 1709 
L 2253 4666 
z
" transform="scale(0.015625)"/>
       </defs>
       <use xlink:href="#DejaVuSans-34"/>
       <use xlink:href="#DejaVuSans-30" x="63.623047"/>
      </g>
     </g>
    </g>
    <g id="ytick_4">
     <g id="line2d_13">
      <g>
       <use xlink:href="#m4c82fe01a2" x="144" y="219.6075" style="stroke: #000000; stroke-width: 0.8"/>
      </g>
     </g>
     <g id="text_14">
      <!-- 60 -->
      <g transform="translate(124.275 223.406719) scale(0.1 -0.1)">
       <defs>
        <path id="DejaVuSans-36" d="M 2113 2584 
Q 1688 2584 1439 2293 
Q 1191 2003 1191 1497 
Q 1191 994 1439 701 
Q 1688 409 2113 409 
Q 2538 409 2786 701 
Q 3034 994 3034 1497 
Q 3034 2003 2786 2293 
Q 2538 2584 2113 2584 
z
M 3366 4563 
L 3366 3988 
Q 3128 4100 2886 4159 
Q 2644 4219 2406 4219 
Q 1781 4219 1451 3797 
Q 1122 3375 1075 2522 
Q 1259 2794 1537 2939 
Q 1816 3084 2150 3084 
Q 2853 3084 3261 2657 
Q 3669 2231 3669 1497 
Q 3669 778 3244 343 
Q 2819 -91 2113 -91 
Q 1303 -91 875 529 
Q 447 1150 447 2328 
Q 447 3434 972 4092 
Q 1497 4750 2381 4750 
Q 2619 4750 2861 4703 
Q 3103 4656 3366 4563 
z
" transform="scale(0.015625)"/>
       </defs>
       <use xlink:href="#DejaVuSans-36"/>
       <use xlink:href="#DejaVuSans-30" x="63.623047"/>
      </g>
     </g>
    </g>
    <g id="ytick_5">
     <g id="line2d_14">
      <g>
       <use xlink:href="#m4c82fe01a2" x="144" y="146.1075" style="stroke: #000000; stroke-width: 0.8"/>
      </g>
     </g>
     <g id="text_15">
      <!-- 80 -->
      <g transform="translate(124.275 149.906719) scale(0.1 -0.1)">
       <defs>
        <path id="DejaVuSans-38" d="M 2034 2216 
Q 1584 2216 1326 1975 
Q 1069 1734 1069 1313 
Q 1069 891 1326 650 
Q 1584 409 2034 409 
Q 2484 409 2743 651 
Q 3003 894 3003 1313 
Q 3003 1734 2745 1975 
Q 2488 2216 2034 2216 
z
M 1403 2484 
Q 997 2584 770 2862 
Q 544 3141 544 3541 
Q 544 4100 942 4425 
Q 1341 4750 2034 4750 
Q 2731 4750 3128 4425 
Q 3525 4100 3525 3541 
Q 3525 3141 3298 2862 
Q 3072 2584 2669 2484 
Q 3125 2378 3379 2068 
Q 3634 1759 3634 1313 
Q 3634 634 3220 271 
Q 2806 -91 2034 -91 
Q 1263 -91 848 271 
Q 434 634 434 1313 
Q 434 1759 690 2068 
Q 947 2378 1403 2484 
z
M 1172 3481 
Q 1172 3119 1398 2916 
Q 1625 2713 2034 2713 
Q 2441 2713 2670 2916 
Q 2900 3119 2900 3481 
Q 2900 3844 2670 4047 
Q 2441 4250 2034 4250 
Q 1625 4250 1398 4047 
Q 1172 3844 1172 3481 
z
" transform="scale(0.015625)"/>
       </defs>
       <use xlink:href="#DejaVuSans-38"/>
       <use xlink:href="#DejaVuSans-30" x="63.623047"/>
      </g>
     </g>
    </g>
    <g id="ytick_6">
     <g id="line2d_15">
      <g>
       <use xlink:href="#m4c82fe01a2" x="144" y="72.6075" style="stroke: #000000; stroke-width: 0.8"/>
      </g>
     </g>
     <g id="text_16">
      <!-- 100 -->
      <g transform="translate(117.9125 76.406719) scale(0.1 -0.1)">
       <use xlink:href="#DejaVuSans-31"/>
       <use xlink:href="#DejaVuSans-30" x="63.623047"/>
       <use xlink:href="#DejaVuSans-30" x="127.246094"/>
      </g>
     </g>
    </g>
    <g id="text_17">
     <!-- Percent Adult Literacy -->
     <g transform="translate(111.832812 309.570781) rotate(-90) scale(0.1 -0.1)">
      <defs>
       <path id="DejaVuSans-50" d="M 1259 4147 
L 1259 2394 
L 2053 2394 
Q 2494 2394 2734 2622 
Q 2975 2850 2975 3272 
Q 2975 3691 2734 3919 
Q 2494 4147 2053 4147 
L 1259 4147 
z
M 628 4666 
L 2053 4666 
Q 2838 4666 3239 4311 
Q 3641 3956 3641 3272 
Q 3641 2581 3239 2228 
Q 2838 1875 2053 1875 
L 1259 1875 
L 1259 0 
L 628 0 
L 628 4666 
z
" transform="scale(0.015625)"/>
       <path id="DejaVuSans-63" d="M 3122 3366 
L 3122 2828 
Q 2878 2963 2633 3030 
Q 2388 3097 2138 3097 
Q 1578 3097 1268 2742 
Q 959 2388 959 1747 
Q 959 1106 1268 751 
Q 1578 397 2138 397 
Q 2388 397 2633 464 
Q 2878 531 3122 666 
L 3122 134 
Q 2881 22 2623 -34 
Q 2366 -91 2075 -91 
Q 1284 -91 818 406 
Q 353 903 353 1747 
Q 353 2603 823 3093 
Q 1294 3584 2113 3584 
Q 2378 3584 2631 3529 
Q 2884 3475 3122 3366 
z
" transform="scale(0.015625)"/>
       <path id="DejaVuSans-6e" d="M 3513 2113 
L 3513 0 
L 2938 0 
L 2938 2094 
Q 2938 2591 2744 2837 
Q 2550 3084 2163 3084 
Q 1697 3084 1428 2787 
Q 1159 2491 1159 1978 
L 1159 0 
L 581 0 
L 581 3500 
L 1159 3500 
L 1159 2956 
Q 1366 3272 1645 3428 
Q 1925 3584 2291 3584 
Q 2894 3584 3203 3211 
Q 3513 2838 3513 2113 
z
" transform="scale(0.015625)"/>
       <path id="DejaVuSans-74" d="M 1172 4494 
L 1172 3500 
L 2356 3500 
L 2356 3053 
L 1172 3053 
L 1172 1153 
Q 1172 725 1289 603 
Q 1406 481 1766 481 
L 2356 481 
L 2356 0 
L 1766 0 
Q 1100 0 847 248 
Q 594 497 594 1153 
L 594 3053 
L 172 3053 
L 172 3500 
L 594 3500 
L 594 4494 
L 1172 4494 
z
" transform="scale(0.015625)"/>
       <path id="DejaVuSans-41" d="M 2188 4044 
L 1331 1722 
L 3047 1722 
L 2188 4044 
z
M 1831 4666 
L 2547 4666 
L 4325 0 
L 3669 0 
L 3244 1197 
L 1141 1197 
L 716 0 
L 50 0 
L 1831 4666 
z
" transform="scale(0.015625)"/>
       <path id="DejaVuSans-75" d="M 544 1381 
L 544 3500 
L 1119 3500 
L 1119 1403 
Q 1119 906 1312 657 
Q 1506 409 1894 409 
Q 2359 409 2629 706 
Q 2900 1003 2900 1516 
L 2900 3500 
L 3475 3500 
L 3475 0 
L 2900 0 
L 2900 538 
Q 2691 219 2414 64 
Q 2138 -91 1772 -91 
Q 1169 -91 856 284 
Q 544 659 544 1381 
z
M 1991 3584 
L 1991 3584 
z
" transform="scale(0.015625)"/>
       <path id="DejaVuSans-6c" d="M 603 4863 
L 1178 4863 
L 1178 0 
L 603 0 
L 603 4863 
z
" transform="scale(0.015625)"/>
       <path id="DejaVuSans-4c" d="M 628 4666 
L 1259 4666 
L 1259 531 
L 3531 531 
L 3531 0 
L 628 0 
L 628 4666 
z
" transform="scale(0.015625)"/>
       <path id="DejaVuSans-61" d="M 2194 1759 
Q 1497 1759 1228 1600 
Q 959 1441 959 1056 
Q 959 750 1161 570 
Q 1363 391 1709 391 
Q 2188 391 2477 730 
Q 2766 1069 2766 1631 
L 2766 1759 
L 2194 1759 
z
M 3341 1997 
L 3341 0 
L 2766 0 
L 2766 531 
Q 2569 213 2275 61 
Q 1981 -91 1556 -91 
Q 1019 -91 701 211 
Q 384 513 384 1019 
Q 384 1609 779 1909 
Q 1175 2209 1959 2209 
L 2766 2209 
L 2766 2266 
Q 2766 2663 2505 2880 
Q 2244 3097 1772 3097 
Q 1472 3097 1187 3025 
Q 903 2953 641 2809 
L 641 3341 
Q 956 3463 1253 3523 
Q 1550 3584 1831 3584 
Q 2591 3584 2966 3190 
Q 3341 2797 3341 1997 
z
" transform="scale(0.015625)"/>
       <path id="DejaVuSans-79" d="M 2059 -325 
Q 1816 -950 1584 -1140 
Q 1353 -1331 966 -1331 
L 506 -1331 
L 506 -850 
L 844 -850 
Q 1081 -850 1212 -737 
Q 1344 -625 1503 -206 
L 1606 56 
L 191 3500 
L 800 3500 
L 1894 763 
L 2988 3500 
L 3597 3500 
L 2059 -325 
z
" transform="scale(0.015625)"/>
      </defs>
      <use xlink:href="#DejaVuSans-50"/>
      <use xlink:href="#DejaVuSans-65" x="56.677734"/>
      <use xlink:href="#DejaVuSans-72" x="118.201172"/>
      <use xlink:href="#DejaVuSans-63" x="157.064453"/>
      <use xlink:href="#DejaVuSans-65" x="212.044922"/>
      <use xlink:href="#DejaVuSans-6e" x="273.568359"/>
      <use xlink:href="#DejaVuSans-74" x="336.947266"/>
      <use xlink:href="#DejaVuSans-20" x="376.15625"/>
      <use xlink:href="#DejaVuSans-41" x="407.943359"/>
      <use xlink:href="#DejaVuSans-64" x="474.601562"/>
      <use xlink:href="#DejaVuSans-75" x="538.078125"/>
      <use xlink:href="#DejaVuSans-6c" x="601.457031"/>
      <use xlink:href="#DejaVuSans-74" x="629.240234"/>
      <use xlink:href="#DejaVuSans-20" x="668.449219"/>
      <use xlink:href="#DejaVuSans-4c" x="700.236328"/>
      <use xlink:href="#DejaVuSans-69" x="755.949219"/>
      <use xlink:href="#DejaVuSans-74" x="783.732422"/>
      <use xlink:href="#DejaVuSans-65" x="822.941406"/>
      <use xlink:href="#DejaVuSans-72" x="884.464844"/>
      <use xlink:href="#DejaVuSans-61" x="925.578125"/>
      <use xlink:href="#DejaVuSans-63" x="986.857422"/>
      <use xlink:href="#DejaVuSans-79" x="1041.837891"/>
     </g>
    </g>
   </g>
   <g id="patch_3">
    <path d="M 144 448.56 
L 144 60.48 
" style="fill: none; stroke: #000000; stroke-width: 0.8; stroke-linejoin: miter; stroke-linecap: square"/>
   </g>
   <g id="patch_4">
    <path d="M 1036.8 448.56 
L 1036.8 60.48 
" style="fill: none; stroke: #000000; stroke-width: 0.8; stroke-linejoin: miter; stroke-linecap: square"/>
   </g>
   <g id="patch_5">
    <path d="M 144 448.56 
L 1036.8 448.56 
" style="fill: none; stroke: #000000; stroke-width: 0.8; stroke-linejoin: miter; stroke-linecap: square"/>
   </g>
   <g id="patch_6">
    <path d="M 144 60.48 
L 1036.8 60.48 
" style="fill: none; stroke: #000000; stroke-width: 0.8; stroke-linejoin: miter; stroke-linecap: square"/>
   </g>
  </g>
 </g>
 <defs>
  <clipPath id="p4b1b9630cf">
   <rect x="144" y="60.48" width="892.8" height="388.08"/>
  </clipPath>
 </defs>
</svg>
